<svg version="1" xmlns="http://www.w3.org/2000/svg" width="548" height="548" viewBox="0 0 411.000000 411.000000"><path d="M.5 191v181.6l14.8 14.7L30 402h88V300.2l.1-101.7 19 44.4 19.1 44.4 14.6 14.7 14.7 14.7h32.1l32.1.1 2-4.7c1.1-2.5 9.6-22.3 18.8-43.9 9.3-21.5 17.1-39.2 17.4-39.2.3 0 .5 32.3.5 71.7l-.1 71.8 14.6 14.7 14.6 14.7 46.6.1h46.6V37.8l-2.1-.8c-1.2-.5-1.8-.9-1.4-.9.5-.1 0-.9-1-1.9-.9-1.1-2-1.7-2.4-1.5-.5.2-.8 0-.8-.6 0-1.4-9.8-11.1-11.2-11.1-.6 0-.9-.3-.6-.6.4-.3-1.7-2.9-4.5-5.7l-5.1-5.2H272.5l-15 33.5c-8.2 18.5-16.3 36.5-17.9 40-1.6 3.6-4.8 10.8-7.1 16-2.4 5.2-5.6 12.4-7.2 16-1.7 3.6-7.9 17.5-13.8 31-6 13.5-11.3 25.1-11.8 25.8-.7.9-1.9-.7-4.2-6-1.8-4-7.1-15.9-11.8-26.3-4.7-10.5-15.6-34.8-24.2-54-8.6-19.3-16.9-37.6-18.3-40.7-2.1-4.4-6.1-9.2-17.2-20.5L109.5 9.6H55L.5 9.5V191z"/></svg>